# xmcd
#
# Track frame offsets:
#	150
#	18032
#	31549
#	48386
#	67596
#	82726
#	99775
#	112105
#	127776
#	143834
#	161724
#
# Disc length: 2380 seconds
# Revision: 0
# Processed by: cddbd v1.5.2PL0 Copyright (c) Steve Scherf et al.
# Submitted via: dBpowerAMP V12.0
#
DISCID=70094a0b
DTITLE=Becky Schlegel - Opry Lullaby
DYEAR=2013
DGENRE=Country
TTITLE0=Opry Lullaby
TTITLE1=Under The Influence Of Merle
TTITLE2=Thanks To The Country Girl
TTITLE3=Song For Jack
TTITLE4=Someone I'd Like To Know
TTITLE5=Not Coming Home
TTITLE6=Man The Waves In Arkansas
TTITLE7=Thank You
TTITLE8=Sweet Dreams Patsy Cline
TTITLE9=Midwest Country Show
TTITLE10=Balm Of Gilead
EXTD=
EXTT0=
EXTT1=
EXTT2=
EXTT3=
EXTT4=
EXTT5=
EXTT6=
EXTT7=
EXTT8=
EXTT9=
EXTT10=
PLAYORDER=
